<svg xmlns="http://www.w3.org/2000/svg">
        <symbol id="facebook" viewBox="0 0 29.94 29.94">
             <g>
	             <path d="M27.56,0.684H2.383C1.065,0.684,0,1.748,0,3.064v23.813c0,1.312,1.065,2.379,2.383,2.379H27.56
		          c1.312,0,2.38-1.066,2.38-2.379V3.064C29.939,1.748,28.871,0.684,27.56,0.684z M20.125,9.167c-0.619-0.362-1.11-0.648-1.727-0.648
		          c-0.604,0-1.12,0.151-1.384,0.405c-0.264,0.252-0.395,0.74-0.395,1.461v1.067h3.229l-0.699,2.968h-2.53v9.862h-4.056V14.42H10.67
		          v-2.968h1.895v-1.133c0-1.193,0.143-1.907,0.425-2.496c0.281-0.587,0.826-1.241,1.584-1.611c0.757-0.369,1.877-0.555,3.036-0.555
		          c1.188,0,2.116,0.396,3.254,0.715L20.125,9.167z"/>
	         <g>
        
        </symbol>
		<symbol id="telegram" viewBox="0 0 455 455" >
		   <g>
	           <path style="fill-rule:evenodd;clip-rule:evenodd;" d="M0,0v455h455V0H0z M384.814,100.68l-53.458,257.136
		       c-1.259,6.071-8.378,8.822-13.401,5.172l-72.975-52.981c-4.43-3.217-10.471-3.046-14.712,0.412l-40.46,32.981
		       c-4.695,3.84-11.771,1.7-13.569-4.083l-28.094-90.351l-72.583-27.089c-7.373-2.762-7.436-13.171-0.084-16.003L373.36,90.959
		       C379.675,88.517,386.19,94.049,384.814,100.68z"/>
	          <path style="fill-rule:evenodd;clip-rule:evenodd;" d="M313.567,147.179l-141.854,87.367c-5.437,3.355-7.996,9.921-6.242,16.068
		       l15.337,53.891c1.091,3.818,6.631,3.428,7.162-0.517l3.986-29.553c0.753-5.564,3.406-10.693,7.522-14.522l117.069-108.822
		       C318.739,149.061,316.115,145.614,313.567,147.179z"/>
           </g>
		</symbol>
</svg>